<svg viewBox="0 0 40 40" fill="none" xmlns="http://www.w3.org/2000/svg">
  <rect width="40" height="40" rx="8" fill="#0F0F12"/>
  <path d="M5.28418 20.3848C12.7311 20.3849 18.7684 26.4222 18.7686 33.8691V34.7782C18.7686 34.9854 18.6006 35.1533 18.3934 35.1533H16.5743C16.3672 35.1533 16.1992 34.9854 16.1992 34.7782V33.8691C16.1991 27.8407 11.3126 22.9543 5.28418 22.9541H4.37511C4.16794 22.9541 4 22.7862 4 22.579V20.7599C4 20.5527 4.16794 20.3848 4.37511 20.3848H5.28418ZM34.499 22.579C34.499 22.7862 34.3311 22.9541 34.1239 22.9541H25.0208C24.6866 22.9541 24.5193 23.3582 24.7556 23.5945L28.8812 27.7201C29.0277 27.8666 29.0277 28.1041 28.8812 28.2506L27.5963 29.5355C27.4498 29.682 27.2123 29.682 27.0658 29.5355L22.9402 25.4099C22.7039 25.1736 22.2998 25.3409 22.2998 25.6751V34.7782C22.2998 34.9854 22.1319 35.1533 21.9247 35.1533H20.1056C19.8984 35.1533 19.7305 34.9854 19.7305 34.7782V20.7599C19.7305 20.5527 19.8984 20.3848 20.1056 20.3848H34.1239C34.3311 20.3848 34.499 20.5527 34.499 20.7599V22.579ZM18.7686 19.3681C18.7686 19.5752 18.6006 19.7432 18.3934 19.7432H4.37511C4.16794 19.7432 4 19.5752 4 19.3681V17.5499C4 17.3427 4.16794 17.1748 4.37511 17.1748H13.4782C13.8124 17.1748 13.9797 16.7708 13.7434 16.5344L9.61772 12.4087C9.47122 12.2623 9.4712 12.0248 9.61764 11.8783L10.9027 10.5925C11.0492 10.446 11.2868 10.4459 11.4333 10.5925L15.5589 14.718C15.7952 14.9543 16.1992 14.787 16.1992 14.4528V5.34972C16.1992 5.14255 16.3672 4.97461 16.5743 4.97461H18.3934C18.6006 4.97461 18.7686 5.14255 18.7686 5.34972V19.3681ZM22.2998 6.25879C22.2998 12.2873 27.1864 17.1746 33.2148 17.1748H34.1239C34.3311 17.1748 34.499 17.3427 34.499 17.5499V19.3681C34.499 19.5752 34.3311 19.7432 34.1239 19.7432H33.2148C25.7679 19.743 19.7305 13.7058 19.7305 6.25879V5.34972C19.7305 5.14255 19.8984 4.97461 20.1056 4.97461H21.9247C22.1319 4.97461 22.2998 5.14255 22.2998 5.34972V6.25879Z" fill="#F34499"/>
</svg>
